<svg width="2940" height="649" viewBox="0 0 2940 649" fill="none" xmlns="http://www.w3.org/2000/svg">
<path d="M440.914 118.375H25.8176C11.7532 118.375 0.019763 130.227 0.019763 144.489V191.304C0.019763 205.921 11.7532 217.457 25.8373 217.457H440.894C455.314 217.457 466.711 205.566 467.047 191.324V144.824C467.047 130.246 455.314 118.355 440.914 118.355V118.375ZM440.914 378.96H25.8176C22.4195 378.967 19.0564 379.647 15.9233 380.963C12.7902 382.279 9.94942 384.203 7.56553 386.625C2.71229 391.546 -0.00592201 398.182 9.68775e-06 405.094V451.909C9.68775e-06 466.527 11.7335 478.043 25.8176 478.043H440.874C455.294 478.043 466.692 466.507 467.028 451.929V405.094C467.028 390.496 455.314 378.96 440.914 378.96ZM259.519 508.937H25.8373C18.9829 508.937 12.4051 511.683 7.58528 516.582C2.73205 521.503 0.0138313 528.139 0.019763 535.051V581.866C0.019763 596.484 11.7532 608 25.8373 608H259.183C273.603 608 285.001 596.148 285.001 581.886V535.051C285.088 531.65 284.493 528.267 283.251 525.099C282.01 521.932 280.147 519.045 277.772 516.61C275.397 514.174 272.558 512.239 269.423 510.917C266.289 509.596 262.921 508.936 259.519 508.937ZM467.047 248.648H25.8373C18.9829 248.648 12.4051 251.413 7.58528 256.292C2.72723 261.219 0.00862981 267.863 0.019763 274.781V321.597C0.019763 336.194 11.7532 347.73 25.8373 347.73H466.731C481.151 347.73 492.529 335.859 492.529 321.597V274.781C492.587 271.388 491.971 268.018 490.719 264.864C489.467 261.709 487.603 258.835 485.234 256.405C482.865 253.975 480.038 252.039 476.916 250.707C473.795 249.376 470.441 248.676 467.047 248.648Z" fill="#00C3F7"/>
<path d="M922.096 148.426C910.127 136.036 895.788 126.181 879.933 119.446C863.988 112.744 846.87 109.278 829.574 109.248C812.718 108.859 796.009 112.461 780.81 119.761C770.613 124.638 761.416 131.442 753.74 139.823V132.202C753.679 128.323 752.232 124.594 749.661 121.689C748.392 120.174 746.802 118.959 745.006 118.132C743.211 117.305 741.254 116.886 739.278 116.906H684.822C682.84 116.853 680.873 117.258 679.072 118.087C677.272 118.917 675.686 120.149 674.438 121.689C671.734 124.513 670.26 128.294 670.341 132.202V494.983C670.341 498.803 671.917 502.623 674.42 505.478C675.786 506.828 677.408 507.891 679.191 508.605C680.975 509.318 682.883 509.667 684.803 509.631H739.89C743.672 509.631 747.121 508.037 749.958 505.478C751.442 504.179 752.611 502.559 753.376 500.74C754.141 498.922 754.481 496.953 754.37 494.983V371.071C762.232 379.675 772.3 386.053 783.314 389.872C797.794 395.286 812.906 397.845 828.314 397.845C845.928 397.845 863.246 394.637 879.302 387.647C895.428 380.925 909.995 370.953 922.096 358.352C934.652 345.219 944.494 329.738 951.058 312.796C958.513 293.836 962.149 273.591 961.756 253.222C961.991 232.77 958.361 212.457 951.058 193.352C944.283 176.701 934.454 161.464 922.077 148.426H922.096ZM872.386 279.644C869.505 287.337 865.118 294.378 859.482 300.354C853.897 306.358 847.12 311.13 839.585 314.364C832.05 317.599 823.923 319.224 815.724 319.137C807.232 319.137 799.055 317.542 791.509 314.038C784.06 310.827 777.318 306.177 771.67 300.354C766.044 294.309 761.564 287.292 758.45 279.644C752.159 263.242 752.159 245.093 758.45 228.692C761.286 221.053 766.014 214.044 771.67 208.296C777.365 202.449 784.09 197.703 791.509 194.298C799.072 190.731 807.365 188.984 815.724 189.199C824.234 189.199 832.411 190.793 840.273 194.279C847.504 197.802 854.123 202.252 859.797 208C865.452 214.044 869.55 220.719 872.702 228.377C878.733 244.953 878.622 263.143 872.386 279.644ZM1258.2 116.887H1203.44C1201.55 116.88 1199.67 117.273 1197.93 118.039C1196.2 118.806 1194.65 119.93 1193.38 121.337C1191.96 122.767 1190.85 124.461 1190.1 126.323C1189.34 128.184 1188.96 130.176 1188.98 132.184V138.859C1182.09 130.851 1173.63 124.35 1164.12 119.761C1149.23 112.528 1132.83 108.925 1116.28 109.248C1081.02 109.309 1047.21 123.273 1022.18 148.111C1009.28 161.212 999.021 176.672 991.96 193.649C984.104 212.619 980.253 233.008 980.65 253.537C980.313 274.061 984.161 294.439 991.96 313.426C998.986 330.346 1009.13 345.794 1021.87 358.964C1034.03 371.5 1048.62 381.434 1064.74 388.166C1080.86 394.897 1098.18 398.285 1115.65 398.123C1132.34 398.457 1148.69 394.953 1163.8 387.61C1173.24 382.845 1182.05 376.485 1188.98 368.513V375.836C1188.98 379.656 1190.54 383.476 1193.38 386.349C1196.21 388.89 1199.68 390.484 1203.44 390.484H1258.2C1262.04 390.412 1265.73 388.942 1268.58 386.349C1269.94 384.969 1271.01 383.324 1271.71 381.516C1272.42 379.708 1272.75 377.776 1272.68 375.836V132.184C1272.76 128.278 1271.3 124.497 1268.6 121.671C1267.35 120.131 1265.76 118.898 1263.96 118.069C1262.16 117.239 1260.18 116.835 1258.2 116.887ZM1184.25 279.328C1181.37 287.022 1176.98 294.063 1171.35 300.039C1165.69 305.779 1159.09 310.513 1151.84 314.038C1136.42 321.047 1118.47 321.047 1103.06 314.038C1095.64 310.633 1088.92 305.887 1083.22 300.039C1077.59 294.062 1073.21 287.021 1070.33 279.328C1064.36 262.979 1064.36 245.041 1070.33 228.692C1073.15 221.053 1077.57 214.359 1083.24 208.296C1088.89 202.567 1095.5 197.802 1103.06 194.298C1110.72 190.836 1119.03 189.046 1127.44 189.046C1135.85 189.046 1144.16 190.836 1151.82 194.298C1159.07 197.802 1165.69 202.252 1171.35 207.981C1176.71 214.044 1181.1 220.719 1184.25 228.377C1190.56 244.934 1190.56 263.086 1184.25 279.328ZM1804.22 246.51C1796.33 239.563 1787.27 234.07 1777.47 230.286C1767.08 226.141 1756.33 222.939 1745.37 220.719L1703.5 212.45C1692.81 210.54 1685.26 207.666 1681.16 204.162C1679.46 202.977 1678.06 201.407 1677.08 199.581C1676.1 197.754 1675.56 195.722 1675.51 193.649C1675.51 189.199 1678.03 185.379 1683.37 182.19C1690.6 178.371 1698.48 176.442 1706.66 177.091C1717.36 177.091 1728.05 179.316 1737.81 183.451C1747.26 187.604 1756.7 192.388 1765.19 198.099C1777.47 205.756 1787.85 204.477 1795.08 195.874L1815.24 172.956C1819 169.118 1821.21 164.038 1821.54 158.624C1821.37 155.834 1820.61 153.113 1819.3 150.642C1818 148.17 1816.18 146.005 1813.97 144.291C1805.46 136.968 1791.95 128.995 1774 121.356C1756.07 113.717 1733.39 109.563 1706.66 109.563C1690.34 109.345 1674.09 111.71 1658.5 116.572C1645.19 120.68 1632.71 127.149 1621.68 135.67C1611.74 143.45 1603.68 153.359 1598.08 164.668C1592.74 175.695 1589.95 187.778 1589.9 200.027C1589.9 222.647 1596.82 241.115 1610.35 254.798C1623.89 268.5 1641.84 277.419 1664.18 281.869L1707.6 291.436C1717.06 293.031 1726.48 295.886 1735.3 300.039C1740.01 301.949 1743.16 306.714 1743.16 312.128C1743.16 316.912 1740.64 321.362 1735.3 325.2C1729.94 329.019 1721.14 331.56 1709.81 331.56C1697.93 331.761 1686.18 329.143 1675.51 323.921C1665.39 319.041 1655.98 312.83 1647.51 305.453C1643.8 302.329 1639.52 299.949 1634.9 298.445C1629.88 296.85 1623.89 298.445 1617.29 303.859L1593.37 322.011C1590.11 324.357 1587.59 327.577 1586.09 331.298C1584.58 335.018 1584.16 339.088 1584.88 343.037C1586.12 351.01 1592.74 358.945 1605.01 368.197C1635.18 388.563 1670.89 399.13 1707.29 398.457C1724.23 398.677 1741.1 396.313 1757.33 391.448C1771.25 387.241 1784.34 380.668 1796.03 372.017C1806.41 364.044 1815.24 353.846 1821.21 342.073C1826.96 330.491 1829.98 317.738 1830.01 304.804C1830.28 293.179 1827.91 281.644 1823.1 271.059C1818.34 261.808 1811.95 253.478 1804.22 246.51ZM2043.39 312.777C2042.16 310.602 2040.44 308.747 2038.36 307.361C2036.28 305.976 2033.91 305.1 2031.43 304.804C2026.4 304.804 2021.36 306.399 2017.26 309.254C2010.6 313.637 2002.89 316.17 1994.92 316.597C1992.4 316.597 1989.58 316.281 1987.06 315.633C1984.33 315.085 1981.82 313.758 1979.83 311.813C1977.31 309.471 1975.28 306.662 1973.84 303.544C1972.06 298.869 1971.21 293.895 1971.32 288.896V189.514H2042.44C2046.6 189.415 2050.55 187.699 2053.46 184.73C2054.93 183.403 2056.11 181.782 2056.93 179.972C2057.74 178.162 2058.17 176.202 2058.18 174.217V132.202C2058.21 130.165 2057.8 128.146 2056.99 126.279C2056.17 124.411 2054.97 122.739 2053.46 121.374C2050.6 118.559 2046.77 116.963 2042.76 116.924H1971.63V49.0628C1971.75 47.0452 1971.41 45.0272 1970.65 43.1546C1969.89 41.282 1968.73 39.6015 1967.24 38.2346C1964.51 35.6479 1960.91 34.1734 1957.15 34.0999H1901.77C1897.8 34.0226 1893.96 35.5074 1891.07 38.2346C1888.14 41.0837 1886.44 44.9743 1886.36 49.0628V116.924H1854.88C1852.9 116.87 1850.93 117.271 1849.13 118.097C1847.33 118.924 1845.74 120.153 1844.49 121.689C1841.92 124.594 1840.47 128.323 1840.41 132.202V174.236C1840.41 178.055 1841.97 181.893 1844.49 184.749C1845.69 186.343 1847.27 187.615 1849.08 188.45C1850.89 189.285 1852.89 189.657 1854.88 189.532H1886.36V307.697C1886.05 321.724 1888.84 335.646 1894.54 348.469C1899.61 358.948 1906.79 368.27 1915.62 375.855C1924.43 383.179 1934.81 388.278 1945.51 391.467C1956.62 394.914 1968.19 396.634 1979.83 396.566C1995.12 396.535 2010.32 394.056 2024.83 389.223C2038.29 384.734 2050.48 377.093 2060.39 366.937C2063.4 363.842 2065.23 359.794 2065.57 355.491C2065.92 351.188 2064.74 346.901 2062.26 343.37L2043.39 312.777ZM2343.29 116.887H2288.54C2286.64 116.88 2284.77 117.273 2283.03 118.039C2281.3 118.806 2279.74 119.93 2278.47 121.337C2277.06 122.765 2275.94 124.458 2275.18 126.32C2274.43 128.181 2274.04 130.174 2274.06 132.184V138.859C2267.18 130.846 2258.71 124.344 2249.2 119.761C2234.21 112.494 2217.71 108.89 2201.06 109.248C2183.65 109.249 2166.4 112.682 2150.31 119.35C2134.21 126.018 2119.59 135.791 2107.28 148.111C2094.28 161.132 2084.01 176.612 2077.06 193.649C2069.23 212.511 2065.37 232.785 2065.73 253.204C2065.4 273.729 2069.26 294.105 2077.06 313.092C2083.99 329.965 2094.38 345.577 2106.97 358.63C2119.1 371.148 2133.63 381.095 2149.68 387.88C2165.74 394.665 2183 398.149 2200.43 398.123C2217.04 398.433 2233.51 394.946 2248.57 387.925C2258.02 383.16 2266.83 376.801 2273.75 368.828V375.836C2273.78 379.73 2275.3 383.438 2278.01 386.164C2280.71 388.9 2284.38 390.453 2288.23 390.484H2343.29C2347.11 390.489 2350.77 388.986 2353.49 386.301C2356.2 383.616 2357.74 379.968 2357.78 376.152V132.202C2357.82 130.267 2357.48 128.342 2356.77 126.538C2356.07 124.735 2355.02 123.087 2353.68 121.689C2352.43 120.148 2350.85 118.915 2349.04 118.085C2347.24 117.256 2345.28 116.833 2343.29 116.887ZM2269.35 279.328C2266.47 287.02 2262.08 294.06 2256.45 300.039C2250.78 305.78 2244.18 310.514 2236.92 314.038C2229.26 317.641 2220.86 319.388 2212.39 319.137C2203.88 319.137 2195.7 317.227 2188.16 314.038C2180.74 310.633 2174.01 305.887 2168.32 300.039C2162.69 294.06 2158.3 287.02 2155.41 279.328C2149.45 262.977 2149.45 245.043 2155.41 228.692C2158.31 221.097 2162.69 214.161 2168.32 208.296C2173.99 202.567 2180.59 197.802 2188.16 194.298C2195.77 190.844 2204.04 189.104 2212.39 189.199C2220.88 189.199 2229.06 190.793 2236.92 194.279C2244.17 197.802 2250.77 202.252 2256.45 208C2262.1 214.044 2266.51 220.719 2269.35 228.377C2275.95 244.72 2275.95 262.985 2269.35 279.328ZM2643.85 309.273L2612.37 285.058C2606.4 280.293 2600.72 279.013 2595.7 280.923C2591.27 282.823 2587.3 285.649 2584.05 289.211C2577.17 297.548 2569.11 304.843 2560.14 310.867C2550.7 316.281 2540.3 318.84 2529.6 318.191C2517.3 318.33 2505.27 314.6 2495.2 307.53C2485.09 300.42 2477.42 290.346 2473.27 278.698C2470.41 270.724 2468.93 262.323 2468.88 253.853C2468.88 245.249 2470.12 236.646 2473.27 228.377C2476.11 220.719 2480.2 213.729 2485.86 207.981C2491.53 202.252 2498.13 197.468 2505.36 194.279C2513.06 190.734 2521.44 188.894 2529.91 188.884C2540.61 188.499 2551.2 191.147 2560.45 196.523C2569.5 202.453 2577.57 209.76 2584.37 218.179C2587.5 221.683 2591.29 224.539 2595.7 226.467C2600.72 228.377 2606.4 227.097 2612.05 222.314L2643.54 198.432C2647.3 195.874 2650.45 192.054 2651.71 187.604C2652.6 185.222 2652.95 182.672 2652.73 180.138C2652.52 177.604 2651.74 175.151 2650.45 172.956C2638.31 154.001 2621.65 138.349 2601.98 127.4C2581.22 115.626 2556.35 109.563 2528.65 109.563C2509.13 109.569 2489.78 113.353 2471.69 120.707C2454.41 127.761 2438.69 138.158 2425.43 151.3C2412.13 164.321 2401.64 179.925 2394.6 197.153C2379.8 233.613 2379.8 274.407 2394.6 310.867C2401.83 328.055 2412.21 343.667 2425.43 356.405C2452.98 383.396 2490.09 398.393 2528.65 398.123C2556.35 398.123 2581.22 392.079 2601.98 380.286C2621.82 369.324 2638.6 353.558 2650.77 334.434C2652.05 332.297 2652.83 329.896 2653.05 327.413C2653.27 324.929 2652.92 322.429 2652.03 320.101C2650.53 315.708 2647.67 311.912 2643.85 309.273ZM2935.25 365.954L2848.71 238.871L2922.68 141.102C2924.4 138.871 2925.58 136.268 2926.13 133.5C2926.67 130.732 2926.56 127.875 2925.81 125.157C2924.55 121.356 2921.1 117.202 2911.98 117.202H2853.44C2850.07 117.298 2846.75 118.054 2843.67 119.427C2840.05 121.247 2837.09 124.142 2835.18 127.715L2776.01 210.54H2761.85V14.65C2761.89 12.7156 2761.55 10.7914 2760.85 8.98746C2760.16 7.18355 2759.11 5.53531 2757.77 4.13701C2756.4 2.79349 2754.78 1.736 2752.99 1.02613C2751.21 0.316269 2749.3 -0.0317744 2747.39 0.00227784H2692.61C2688.77 0.0760483 2685.08 1.54546 2682.23 4.13701C2680.77 5.45656 2679.62 7.08351 2678.86 8.90112C2678.1 10.7187 2677.75 12.682 2677.84 14.65V375.836C2677.84 379.971 2679.39 383.809 2682.23 386.349C2683.6 387.695 2685.22 388.753 2687.01 389.463C2688.79 390.173 2690.7 390.52 2692.61 390.484H2747.39C2751.23 390.41 2754.92 388.941 2757.77 386.349C2759.11 384.951 2760.16 383.303 2760.85 381.499C2761.55 379.695 2761.89 377.771 2761.85 375.836V280.293H2777.59L2842.1 379.341C2845.88 386.349 2853.13 390.799 2860.99 390.799H2922.36C2931.8 390.799 2935.56 386.349 2937.14 382.53C2938.25 379.832 2938.65 376.897 2938.32 373.999C2937.99 371.101 2936.93 368.333 2935.25 365.954ZM1569.45 116.887H1508.08C1505.81 116.754 1503.54 117.113 1501.42 117.939C1499.3 118.764 1497.39 120.037 1495.8 121.671C1493.03 124.495 1491.07 128.02 1490.15 131.869L1444.82 300.67H1433.82L1385.37 131.869C1384.45 128.3 1382.84 124.944 1380.64 121.986C1379.31 120.365 1377.62 119.066 1375.72 118.183C1373.81 117.3 1371.73 116.858 1369.63 116.887H1306.05C1297.89 116.887 1292.85 119.446 1290.64 124.86C1289.07 129.625 1289.07 135.058 1290.64 139.823L1368.37 377.116C1369.63 380.62 1371.52 384.124 1374.36 386.665C1377.51 389.539 1381.59 391.115 1385.98 390.799H1418.73L1415.89 398.457L1408.66 420.429C1406.43 427.103 1402.36 433.166 1396.7 437.616C1391.47 441.636 1385.03 443.773 1378.44 443.679C1372.78 443.679 1367.13 442.4 1362.08 440.157C1356.92 437.914 1352.05 435.03 1347.6 431.572C1343.56 428.686 1338.72 427.131 1333.75 427.122H1333.12C1330.28 427.264 1327.51 428.125 1325.09 429.627C1322.67 431.128 1320.66 433.22 1319.27 435.707L1299.77 464.372C1291.9 476.794 1296.3 484.767 1301.34 489.217C1311.75 498.829 1324.09 506.105 1337.53 510.558C1352.43 515.644 1368.06 518.225 1383.8 518.197C1411.79 518.197 1435.4 510.558 1453.33 495.28C1472.05 478.841 1485.7 457.403 1492.67 433.482L1582.69 139.823C1584.58 134.724 1584.9 129.31 1583 124.211C1581.43 120.707 1577.94 116.887 1569.45 116.887Z" fill="#011B33"/>
<path d="M2059.88 485.074V608H2030.17V485.074H2059.88ZM2182.17 521.928C2181.77 517.526 2179.99 514.105 2176.82 511.664C2173.7 509.183 2169.24 507.943 2163.44 507.943C2159.6 507.943 2156.4 508.443 2153.84 509.443C2151.27 510.444 2149.35 511.824 2148.07 513.585C2146.79 515.305 2146.13 517.286 2146.09 519.527C2146.01 521.368 2146.37 522.988 2147.17 524.389C2148.01 525.789 2149.21 527.03 2150.77 528.11C2152.38 529.151 2154.3 530.071 2156.54 530.871C2158.78 531.672 2161.3 532.372 2164.1 532.972L2174.66 535.373C2180.75 536.693 2186.11 538.454 2190.75 540.655C2195.43 542.856 2199.35 545.477 2202.51 548.518C2205.71 551.559 2208.14 555.06 2209.78 559.022C2211.42 562.983 2212.26 567.425 2212.3 572.347C2212.26 580.11 2210.3 586.772 2206.42 592.334C2202.53 597.896 2196.95 602.158 2189.67 605.119C2182.43 608.08 2173.68 609.561 2163.44 609.561C2153.16 609.561 2144.19 608.02 2136.55 604.939C2128.91 601.858 2122.96 597.176 2118.72 590.894C2114.48 584.611 2112.3 576.668 2112.18 567.065H2140.63C2140.87 571.026 2141.93 574.327 2143.81 576.968C2145.69 579.609 2148.27 581.61 2151.55 582.971C2154.88 584.331 2158.72 585.011 2163.08 585.011C2167.08 585.011 2170.48 584.471 2173.28 583.391C2176.12 582.31 2178.3 580.81 2179.83 578.889C2181.35 576.968 2182.13 574.768 2182.17 572.287C2182.13 569.966 2181.41 567.985 2180.01 566.344C2178.6 564.664 2176.44 563.223 2173.52 562.023C2170.64 560.782 2166.96 559.642 2162.48 558.602L2149.63 555.6C2138.99 553.16 2130.61 549.218 2124.48 543.776C2118.36 538.294 2115.32 530.891 2115.36 521.568C2115.32 513.965 2117.36 507.303 2121.48 501.58C2125.61 495.858 2131.31 491.397 2138.59 488.195C2145.87 484.994 2154.18 483.394 2163.5 483.394C2173.02 483.394 2181.29 485.014 2188.29 488.255C2195.33 491.457 2200.79 495.958 2204.67 501.76C2208.56 507.563 2210.54 514.285 2210.62 521.928H2182.17ZM2330.93 521.928C2330.53 517.526 2328.75 514.105 2325.59 511.664C2322.47 509.183 2318.01 507.943 2312.21 507.943C2308.36 507.943 2305.16 508.443 2302.6 509.443C2300.04 510.444 2298.12 511.824 2296.84 513.585C2295.56 515.305 2294.9 517.286 2294.86 519.527C2294.78 521.368 2295.14 522.988 2295.94 524.389C2296.78 525.789 2297.98 527.03 2299.54 528.11C2301.14 529.151 2303.06 530.071 2305.3 530.871C2307.54 531.672 2310.06 532.372 2312.87 532.972L2323.43 535.373C2329.51 536.693 2334.87 538.454 2339.52 540.655C2344.2 542.856 2348.12 545.477 2351.28 548.518C2354.48 551.559 2356.9 555.06 2358.54 559.022C2360.18 562.983 2361.02 567.425 2361.06 572.347C2361.02 580.11 2359.06 586.772 2355.18 592.334C2351.3 597.896 2345.72 602.158 2338.44 605.119C2331.19 608.08 2322.45 609.561 2312.21 609.561C2301.92 609.561 2292.96 608.02 2285.32 604.939C2277.67 601.858 2271.73 597.176 2267.49 590.894C2263.25 584.611 2261.07 576.668 2260.95 567.065H2289.4C2289.64 571.026 2290.7 574.327 2292.58 576.968C2294.46 579.609 2297.04 581.61 2300.32 582.971C2303.64 584.331 2307.48 585.011 2311.85 585.011C2315.85 585.011 2319.25 584.471 2322.05 583.391C2324.89 582.31 2327.07 580.81 2328.59 578.889C2330.11 576.968 2330.89 574.768 2330.93 572.287C2330.89 569.966 2330.17 567.985 2328.77 566.344C2327.37 564.664 2325.21 563.223 2322.29 562.023C2319.41 560.782 2315.73 559.642 2311.25 558.602L2298.4 555.6C2287.76 553.16 2279.37 549.218 2273.25 543.776C2267.13 538.294 2264.09 530.891 2264.13 521.568C2264.09 513.965 2266.13 507.303 2270.25 501.58C2274.37 495.858 2280.07 491.397 2287.36 488.195C2294.64 484.994 2302.94 483.394 2312.27 483.394C2321.79 483.394 2330.05 485.014 2337.05 488.255C2344.1 491.457 2349.56 495.958 2353.44 501.76C2357.32 507.563 2359.3 514.285 2359.38 521.928H2330.93ZM2487.62 485.074H2517.27V564.364C2517.27 573.527 2515.09 581.51 2510.73 588.313C2506.37 595.075 2500.29 600.317 2492.48 604.039C2484.68 607.72 2475.62 609.561 2465.29 609.561C2454.85 609.561 2445.73 607.72 2437.92 604.039C2430.12 600.317 2424.06 595.075 2419.74 588.313C2415.42 581.51 2413.25 573.527 2413.25 564.364V485.074H2442.97V561.783C2442.97 566.024 2443.89 569.806 2445.73 573.127C2447.61 576.448 2450.23 579.049 2453.59 580.93C2456.95 582.811 2460.85 583.751 2465.29 583.751C2469.74 583.751 2473.62 582.811 2476.94 580.93C2480.3 579.049 2482.92 576.448 2484.8 573.127C2486.68 569.806 2487.62 566.024 2487.62 561.783V485.074ZM2602.79 485.074V608H2573.08V485.074H2602.79ZM2763.25 485.074V608H2738.04L2689.12 537.054H2688.34V608H2658.63V485.074H2684.2L2732.58 555.901H2733.6V485.074H2763.25ZM2899.78 525.229C2899.1 522.708 2898.1 520.487 2896.78 518.567C2895.46 516.606 2893.84 514.945 2891.92 513.585C2890 512.224 2887.8 511.204 2885.32 510.524C2882.84 509.803 2880.12 509.443 2877.16 509.443C2871.19 509.443 2866.03 510.884 2861.67 513.765C2857.35 516.646 2854.01 520.848 2851.65 526.37C2849.29 531.852 2848.11 538.514 2848.11 546.357C2848.11 554.24 2849.25 560.962 2851.53 566.525C2853.81 572.087 2857.11 576.328 2861.43 579.249C2865.75 582.17 2870.99 583.631 2877.16 583.631C2882.6 583.631 2887.2 582.751 2890.96 580.99C2894.76 579.189 2897.64 576.648 2899.6 573.367C2901.56 570.086 2902.55 566.224 2902.55 561.783L2908.07 562.443H2878.18V540.775H2931.18V557.041C2931.18 568.045 2928.84 577.469 2924.15 585.312C2919.51 593.154 2913.11 599.177 2904.95 603.378C2896.82 607.58 2887.48 609.681 2876.92 609.681C2865.19 609.681 2854.89 607.14 2846 602.058C2837.12 596.976 2830.2 589.733 2825.24 580.33C2820.27 570.886 2817.79 559.682 2817.79 546.717C2817.79 536.633 2819.29 527.69 2822.3 519.887C2825.3 512.044 2829.48 505.402 2834.84 499.96C2840.24 494.518 2846.48 490.396 2853.57 487.595C2860.69 484.794 2868.35 483.394 2876.56 483.394C2883.68 483.394 2890.3 484.414 2896.42 486.455C2902.59 488.496 2908.03 491.377 2912.75 495.098C2917.51 498.819 2921.37 503.241 2924.33 508.363C2927.29 513.485 2929.14 519.107 2929.86 525.229H2899.78Z" fill="#011B33"/>
</svg>
